solid dt06_6s_protective_boot_fixture
  facet normal 0 0 1
    outer loop
      vertex 0 0 0
      vertex 50 0 0
      vertex 0 30 0
    endloop
  endfacet
  facet normal 0 0 1
    outer loop
      vertex 50 0 0
      vertex 50 30 0
      vertex 0 30 0
    endloop
  endfacet
  facet normal 0 0 1
    outer loop
      vertex 8 8 18
      vertex 42 8 18
      vertex 8 22 18
    endloop
  endfacet
  facet normal 0 0 1
    outer loop
      vertex 42 8 18
      vertex 42 22 18
      vertex 8 22 18
    endloop
  endfacet
endsolid dt06_6s_protective_boot_fixture
